<?xml version="1.0" encoding="utf-8"?>
<svg enable-background="new 0 0 48 48" height="48" viewBox="0 0 48 48" width="48" xmlns="http://www.w3.org/2000/svg">
  <g>
    <rect height="48" width="48" fill="none"/>
  </g>
  <g>
    <g>
      <path d="M 9.345 19.244 L 18.406 19.244 L 18.406 18.027 C 18.406 15.34 20.665 13.162 23.453 13.162 L 24.387 13.162 L 21.99 2.897 C 21.725 1.791 20.702 1 19.529 1 L 14.62 1 L 14.62 3.432 L 19.529 3.432 L 21.295 11.034 C 21.295 11.034 21.283 11.034 21.283 11.034 C 18.557 11.825 16.475 14.05 15.995 16.811 L 9.345 16.811 C 8.739 15.181 6.998 14.087 5.029 14.452 C 3.54 14.731 2.341 15.911 2.064 17.346 C 1.622 19.657 3.464 21.676 5.786 21.676 C 7.427 21.676 8.815 20.655 9.345 19.244 Z M 5.786 19.244 C 5.092 19.244 4.524 18.696 4.524 18.027 C 4.524 17.359 5.092 16.811 5.786 16.811 C 6.48 16.811 7.048 17.359 7.048 18.027 C 7.048 18.696 6.48 19.244 5.786 19.244 Z" style="fill: rgb(40, 70, 180);"/>
      <path d="M 23.453 14.379 C 21.359 14.379 19.668 16.009 19.668 18.027 C 19.668 20.046 21.359 21.676 23.453 21.676 C 25.548 21.676 27.239 20.046 27.239 18.027 C 27.239 16.009 25.548 14.379 23.453 14.379 Z M 23.453 19.244 C 22.759 19.244 22.191 18.696 22.191 18.027 C 22.191 17.359 22.759 16.811 23.453 16.811 C 24.147 16.811 24.715 17.359 24.715 18.027 C 24.715 18.696 24.147 19.244 23.453 19.244 Z" style="fill: rgb(40, 70, 180);"/>
      <path d="M 2.215 25.759 C 2.215 24.416 3.741 23.327 5.62 23.327 L 22.647 23.327 C 24.529 23.327 26.052 24.416 26.052 25.759 L 26.052 30.624 C 26.052 31.968 24.529 33.057 22.647 33.057 L 5.62 33.057 C 3.741 33.057 2.215 31.968 2.215 30.624 L 2.215 25.759 Z M 5.62 24.543 C 4.681 24.543 3.917 25.088 3.917 25.759 L 3.917 30.624 C 3.917 31.297 4.681 31.84 5.62 31.84 L 22.647 31.84 C 23.587 31.84 24.349 31.297 24.349 30.624 L 24.349 25.759 C 24.349 25.088 23.587 24.543 22.647 24.543 L 5.62 24.543 Z M 29.458 28.192 C 29.458 29.2 28.316 30.016 26.904 30.016 L 26.904 26.367 C 28.316 26.367 29.458 27.185 29.458 28.192 Z" style="fill: rgb(40, 70, 180);"/>
    </g>
    <rect x="5.086" width="1.844" height="7.544" style="fill: rgb(40, 70, 180);" y="24.419"/>
    <rect x="7.516" width="1.844" height="7.544" style="fill: rgb(40, 70, 180);" y="24.425"/>
    <rect x="9.989" width="1.844" height="7.544" style="fill: rgb(40, 70, 180);" y="24.478"/>
    <rect x="12.419" width="1.844" height="7.544" style="fill: rgb(40, 70, 180);" y="24.484"/>
    <rect x="14.85" width="1.844" height="7.544" style="fill: rgb(40, 70, 180);" y="24.394"/>
    <rect x="17.28" width="1.844" height="7.544" style="fill: rgb(40, 70, 180);" y="24.4"/>
  </g>
</svg>